<?xml version="1.0" encoding="utf-8"?>
<!-- Generator: Adobe Illustrator 24.0.1, SVG Export Plug-In . SVG Version: 6.00 Build 0)  -->
<svg version="1.1" id="Camada_1" xmlns="http://www.w3.org/2000/svg" x="0px"
	 y="0px"
	 viewBox="0 0 352 377.33" style="enable-background:new 0 0 352 377.33;" xml:space="preserve">
<style type="text/css">
	.st0{fill:#FFFFFF;stroke:#000000;stroke-width:12;}
	.st1{fill:none;stroke:#000000;stroke-width:12;stroke-miterlimit:10;}
</style>
    <g>
	<path class="st0" d="M333.52,270.83l-133.63,93.78c-11.87,8.33-28.24,5.46-36.57-6.41L14.24,145.77
		c-8.33-11.87-5.46-28.24,6.41-36.57l133.63-93.78c11.87-8.33,28.24-5.46,36.57,6.41l149.09,212.43
		C348.25,246.13,345.39,262.5,333.52,270.83z"/>
        <path class="st0" d="M299.93,314.91l-155.72,49.01c-13.83,4.35-28.57-3.33-32.92-17.16L33.38,99.2
		c-4.35-13.83,3.33-28.57,17.16-32.92l155.72-49.01c13.83-4.35,28.57,3.33,32.92,17.16l77.91,247.56
		C321.44,295.82,313.76,310.56,299.93,314.91z"/>
        <g>
		<path class="st0" d="M258.75,346.61H95.5c-14.5,0-26.25-11.75-26.25-26.25V60.83c0-14.5,11.75-26.25,26.25-26.25h163.25
			c14.5,0,26.25,11.75,26.25,26.25v259.53C285,334.86,273.25,346.61,258.75,346.61z"/>
            <g>
			<circle class="st1" cx="177.08" cy="190.83" r="66.5"/>
                <circle class="st1" cx="177.33" cy="190.6" r="18"/>
                <line class="st1" x1="109.17" y1="190.6" x2="159.33" y2="190.6"/>
                <line class="st1" x1="197" y1="190.83" x2="247.17" y2="190.83"/>
		</g>
	</g>
</g>
</svg>
