<?xml version="1.0" encoding="utf-8"?>
<!-- Generator: Adobe Illustrator 24.0.1, SVG Export Plug-In . SVG Version: 6.00 Build 0)  -->
<svg version="1.1" id="Camada_1" xmlns="http://www.w3.org/2000/svg" xmlns:xlink="http://www.w3.org/1999/xlink" x="0px" y="0px"
	 viewBox="0 0 50 50" style="enable-background:new 0 0 50 50;" xml:space="preserve">
<style type="text/css">
	.st0{fill:#FFFFFF;stroke:#001F4F;stroke-width:2;}
	.st1{fill:#FFFFFF;stroke:#001F4F;stroke-width:2;stroke-miterlimit:10;}
</style>
<g>
	<path class="st0" d="M45.22,43.79H25.45c-1.76,0-3.18-1.42-3.18-3.18V9.18c0-1.76,1.42-3.18,3.18-3.18h19.77
		c1.76,0,3.18,1.42,3.18,3.18v31.43C48.4,42.37,46.98,43.79,45.22,43.79z"/>
	<g>
		<circle class="st1" cx="35.33" cy="24.92" r="8.05"/>
		<circle class="st1" cx="35.36" cy="24.9" r="2.18"/>
		<line class="st1" x1="27.1" y1="24.9" x2="33.18" y2="24.9"/>
		<line class="st1" x1="37.74" y1="24.92" x2="43.82" y2="24.92"/>
	</g>
</g>
<g>
	<path class="st0" d="M24.69,43.79H4.92c-1.76,0-3.18-1.42-3.18-3.18V9.18C1.74,7.42,3.16,6,4.92,6h19.77
		c1.76,0,3.18,1.42,3.18,3.18v31.43C27.87,42.37,26.45,43.79,24.69,43.79z"/>
	<g>
		<circle class="st1" cx="14.8" cy="24.92" r="8.05"/>
		<circle class="st1" cx="14.83" cy="24.9" r="2.18"/>
		<line class="st1" x1="6.57" y1="24.9" x2="12.65" y2="24.9"/>
		<line class="st1" x1="17.21" y1="24.92" x2="23.29" y2="24.92"/>
	</g>
</g>
<g>
	<path class="st0" d="M36.27,45.79H14.4c-1.94,0-3.52-1.57-3.52-3.52V7.52C10.88,5.57,12.46,4,14.4,4h21.87
		c1.94,0,3.52,1.57,3.52,3.52v34.76C39.78,44.22,38.21,45.79,36.27,45.79z"/>
	<g>
		<circle class="st1" cx="25.33" cy="24.93" r="8.91"/>
		<circle class="st1" cx="25.36" cy="24.9" r="2.41"/>
		<line class="st1" x1="16.23" y1="24.9" x2="22.95" y2="24.9"/>
		<line class="st1" x1="28" y1="24.93" x2="34.72" y2="24.93"/>
	</g>
</g>
</svg>
